<?xml version="1.0" encoding="utf-8"?>
<!-- Generator: Adobe Illustrator 22.1.0, SVG Export Plug-In . SVG Version: 6.00 Build 0)  -->
<svg version="1.1" id="Capa_1" xmlns="http://www.w3.org/2000/svg" xmlns:xlink="http://www.w3.org/1999/xlink" x="0px" y="0px"
	 viewBox="0 0 382.2 382.2" style="enable-background:new 0 0 382.2 382.2;" xml:space="preserve">
<style type="text/css">
	.st0{fill:#FFFFFF;stroke:#FFFFFF;stroke-miterlimit:10;}
	.st1{enable-background:new    ;}
	.st2{writing-mode:tb;}
	.st3{font-family:'Norwester-Regular';}
	.st4{font-size:98px;glyph-orientation-vertical:0;}
</style>
<g>
	<g>
		<path class="st0" d="M341.5,238.6c3.4-7.9,3.7-15,0.8-21.2c-1.1-2.4-2.7-4.7-4.7-6.7c-3.4-3.4-7.4-5.5-10.3-6.7
			c2.2-7.6,1.6-14.3-1.7-19.9c-0.9-1.5-2.1-3-3.4-4.3c-8.9-9.1-15.6-6.8-15.6-6.8s3.6-14.5-6.9-24.8s-20.5-5.9-29.2,2.9l-43.7,43.7
			c-6.2-2.3-15.9-8.2-25.9-7c-17.8,2-22.5,14-25,24c-5.7,22.5-4,56.2-10.4,69.2c-7.9,16-23.4,29.4-23.4,29.4l60.8,60.8
			c24.8-24.8,48.6-31.2,66.4-38.6c40.3-16.9,60.1-37,70.1-47.9C360.3,262.2,344.4,242.7,341.5,238.6z"/>
		<path class="st0" d="M192.4,60.2l39.2-10.7c-2.1-4.9-4.9-9.6-8.3-13.9c-9.4-11.9-22.8-20.1-37.8-22.9c-1.6-0.3-3.3,0.2-4.4,1.5
			c-1.1,1.2-1.5,2.9-1,4.5L192.4,60.2z"/>
		<path class="st0" d="M184.3,140.7l32.2,40.9l43-39.9l-29.3-37.2c4.9-10,7.3-21.2,6.9-32.5c-0.1-1.4-0.8-2.8-1.9-3.6
			c-1.2-0.8-2.7-1.1-4-0.7l-79.8,22.6l-23.1-61c-0.6-1.5-1.9-2.6-3.5-2.9s-3.2,0.2-4.3,1.4c-23.2,24.2-25.1,62.4-4.3,88.8
			c12.9,16.4,32.4,25.9,53.3,25.9C174.5,142.3,179.5,141.8,184.3,140.7z"/>
	</g>
</g>
<text transform="matrix(-4.371139e-08 -1 1 -4.371139e-08 0 66)" class="st1 st2"><tspan x="0" y="0" class="st0 st3 st4">W</tspan><tspan x="-98" y="0" class="st0 st3 st4">G</tspan><tspan x="-196" y="0" class="st0 st3 st4">M</tspan><tspan x="-294" y="0" class="st0 st3 st4">T</tspan></text>
</svg>
